<svg width="1600" height="1000" viewBox="0 0 1600 1000" fill="none" xmlns="http://www.w3.org/2000/svg">
  <defs>
    <linearGradient id="sky" x1="0" y1="0" x2="0" y2="1000" gradientUnits="userSpaceOnUse">
      <stop stop-color="#0B132B" />
      <stop offset="1" stop-color="#1E293B" />
    </linearGradient>
    <linearGradient id="street" x1="0" y1="640" x2="1600" y2="1000" gradientUnits="userSpaceOnUse">
      <stop stop-color="#0F172A" />
      <stop offset="1" stop-color="#020617" />
    </linearGradient>
  </defs>

  <rect width="1600" height="1000" fill="url(#sky)" />

  <circle cx="180" cy="130" r="90" fill="#F59E0B" fill-opacity="0.18" />
  <circle cx="1420" cy="180" r="120" fill="#60A5FA" fill-opacity="0.14" />

  <rect x="70" y="180" width="260" height="450" rx="24" fill="#1E293B" />
  <rect x="360" y="120" width="220" height="510" rx="24" fill="#334155" />
  <rect x="620" y="200" width="260" height="430" rx="24" fill="#1E293B" />
  <rect x="910" y="140" width="220" height="490" rx="24" fill="#334155" />
  <rect x="1160" y="210" width="330" height="420" rx="24" fill="#1E293B" />

  <g fill="#94A3B8" fill-opacity="0.45">
    <rect x="120" y="250" width="18" height="18" rx="3" />
    <rect x="160" y="250" width="18" height="18" rx="3" />
    <rect x="120" y="292" width="18" height="18" rx="3" />
    <rect x="410" y="190" width="18" height="18" rx="3" />
    <rect x="450" y="190" width="18" height="18" rx="3" />
    <rect x="670" y="260" width="18" height="18" rx="3" />
    <rect x="710" y="260" width="18" height="18" rx="3" />
    <rect x="960" y="220" width="18" height="18" rx="3" />
    <rect x="1210" y="270" width="18" height="18" rx="3" />
  </g>

  <path d="M0 1000L410 640H1190L1600 1000H0Z" fill="url(#street)" />
  <path d="M790 640L742 1000H858L810 640H790Z" fill="#FACC15" fill-opacity="0.75" />
  <path d="M752 700L724 1000H764L792 700H752Z" fill="#FACC15" fill-opacity="0.35" />
  <path d="M848 700L820 1000H860L888 700H848Z" fill="#FACC15" fill-opacity="0.35" />

  <path d="M560 720C620 770 680 845 740 935" stroke="#F97316" stroke-opacity="0.65" stroke-width="12" stroke-linecap="round" />
  <path d="M1040 720C980 770 920 845 860 935" stroke="#FDE047" stroke-opacity="0.7" stroke-width="12" stroke-linecap="round" />

  <ellipse cx="800" cy="985" rx="420" ry="20" fill="#020617" fill-opacity="0.8" />
</svg>
