<svg width="1200" height="800" viewBox="0 0 1200 800" fill="none" xmlns="http://www.w3.org/2000/svg">
  <defs>
    <linearGradient id="lotBg" x1="0" y1="0" x2="1200" y2="800" gradientUnits="userSpaceOnUse">
      <stop stop-color="#0B132B" />
      <stop offset="1" stop-color="#1E293B" />
    </linearGradient>
    <linearGradient id="lane" x1="0" y1="0" x2="1" y2="1">
      <stop stop-color="#111827" />
      <stop offset="1" stop-color="#0F172A" />
    </linearGradient>
  </defs>

  <rect width="1200" height="800" fill="url(#lotBg)" />
  <circle cx="140" cy="110" r="90" fill="#F59E0B" fill-opacity="0.2" />
  <circle cx="1040" cy="680" r="130" fill="#F59E0B" fill-opacity="0.15" />

  <rect x="70" y="90" width="1060" height="620" rx="30" fill="#0F172A" stroke="#334155" stroke-width="2" />
  <rect x="120" y="140" width="960" height="520" rx="22" fill="url(#lane)" />

  <line x1="190" y1="250" x2="1030" y2="250" stroke="#FACC15" stroke-width="10" stroke-dasharray="28 22" />
  <line x1="190" y1="400" x2="1030" y2="400" stroke="#FACC15" stroke-width="10" stroke-dasharray="28 22" />
  <line x1="190" y1="550" x2="1030" y2="550" stroke="#FACC15" stroke-width="10" stroke-dasharray="28 22" />

  <g fill="#1F2937" stroke="#64748B" stroke-width="2">
    <rect x="190" y="178" width="130" height="54" rx="10" />
    <rect x="360" y="178" width="130" height="54" rx="10" />
    <rect x="530" y="178" width="130" height="54" rx="10" />
    <rect x="700" y="178" width="130" height="54" rx="10" />
    <rect x="870" y="178" width="130" height="54" rx="10" />

    <rect x="250" y="328" width="130" height="54" rx="10" />
    <rect x="420" y="328" width="130" height="54" rx="10" />
    <rect x="590" y="328" width="130" height="54" rx="10" />
    <rect x="760" y="328" width="130" height="54" rx="10" />

    <rect x="190" y="478" width="130" height="54" rx="10" />
    <rect x="360" y="478" width="130" height="54" rx="10" />
    <rect x="530" y="478" width="130" height="54" rx="10" />
    <rect x="700" y="478" width="130" height="54" rx="10" />
    <rect x="870" y="478" width="130" height="54" rx="10" />
  </g>

  <rect x="150" y="48" width="240" height="56" rx="14" fill="#111827" stroke="#334155" />
  <circle cx="190" cy="76" r="14" fill="#FBBF24" />
  <rect x="220" y="66" width="120" height="20" rx="10" fill="#E2E8F0" fill-opacity="0.95" />
</svg>
