<svg width="1200" height="760" viewBox="0 0 1200 760" fill="none" xmlns="http://www.w3.org/2000/svg">
  <defs>
    <linearGradient id="bg" x1="0" y1="0" x2="1200" y2="760" gradientUnits="userSpaceOnUse">
      <stop stop-color="#0B132B" />
      <stop offset="1" stop-color="#0F766E" />
    </linearGradient>
  </defs>
  <rect width="1200" height="760" fill="url(#bg)" />
  <rect x="70" y="80" width="1060" height="600" rx="28" fill="#0B1220" stroke="#334155" stroke-width="2" />
  <rect x="120" y="130" width="960" height="500" rx="20" fill="#111827" />
  <line x1="160" y1="250" x2="1040" y2="250" stroke="#34D399" stroke-width="10" stroke-dasharray="28 22" />
  <line x1="160" y1="390" x2="1040" y2="390" stroke="#34D399" stroke-width="10" stroke-dasharray="28 22" />
  <line x1="160" y1="530" x2="1040" y2="530" stroke="#34D399" stroke-width="10" stroke-dasharray="28 22" />
  <rect x="240" y="186" width="140" height="50" rx="10" fill="#1E293B" stroke="#64748B" />
  <rect x="430" y="186" width="140" height="50" rx="10" fill="#1E293B" stroke="#64748B" />
  <rect x="620" y="186" width="140" height="50" rx="10" fill="#1E293B" stroke="#64748B" />
  <rect x="810" y="186" width="140" height="50" rx="10" fill="#1E293B" stroke="#64748B" />
  <rect x="300" y="466" width="160" height="58" rx="12" fill="#10B981" fill-opacity="0.82" />
  <circle cx="340" cy="532" r="14" fill="#0F172A" />
  <circle cx="420" cy="532" r="14" fill="#0F172A" />
  <circle cx="150" cy="110" r="58" fill="#34D399" fill-opacity="0.28" />
  <circle cx="1020" cy="640" r="84" fill="#34D399" fill-opacity="0.2" />
</svg>
