<svg width="1400" height="900" viewBox="0 0 1400 900" fill="none" xmlns="http://www.w3.org/2000/svg">
  <defs>
    <linearGradient id="cbg" x1="0" y1="0" x2="1400" y2="900" gradientUnits="userSpaceOnUse">
      <stop stop-color="#0A1128" />
      <stop offset="1" stop-color="#1E293B" />
    </linearGradient>
    <linearGradient id="panel" x1="0" y1="0" x2="1" y2="1">
      <stop stop-color="#0F172A" />
      <stop offset="1" stop-color="#0B132B" />
    </linearGradient>
  </defs>
  <rect width="1400" height="900" fill="url(#cbg)" />
  <rect x="90" y="86" width="1220" height="728" rx="30" fill="#0B1220" stroke="#334155" stroke-width="2" />
  <rect x="138" y="138" width="530" height="300" rx="20" fill="url(#panel)" stroke="#334155" />
  <rect x="730" y="138" width="530" height="300" rx="20" fill="url(#panel)" stroke="#334155" />
  <rect x="138" y="478" width="1122" height="286" rx="20" fill="url(#panel)" stroke="#334155" />
  <rect x="184" y="188" width="438" height="206" rx="14" fill="#111827" />
  <line x1="208" y1="236" x2="594" y2="236" stroke="#38BDF8" stroke-width="8" />
  <line x1="208" y1="280" x2="594" y2="280" stroke="#22D3EE" stroke-width="8" />
  <line x1="208" y1="324" x2="594" y2="324" stroke="#2DD4BF" stroke-width="8" />
  <rect x="778" y="188" width="438" height="206" rx="14" fill="#111827" />
  <line x1="802" y1="236" x2="1188" y2="236" stroke="#FACC15" stroke-width="8" />
  <line x1="802" y1="280" x2="1188" y2="280" stroke="#FB923C" stroke-width="8" />
  <line x1="802" y1="324" x2="1188" y2="324" stroke="#F472B6" stroke-width="8" />
  <rect x="184" y="530" width="1028" height="184" rx="14" fill="#111827" />
  <circle cx="238" cy="622" r="24" fill="#22C55E" />
  <circle cx="312" cy="622" r="24" fill="#F59E0B" />
  <circle cx="386" cy="622" r="24" fill="#EF4444" />
  <rect x="450" y="598" width="712" height="48" rx="10" fill="#1E293B" />
  <text x="128" y="56" fill="#FCD34D" font-size="28" font-family="Arial, sans-serif" font-weight="700">ZLOT COMMAND CENTER</text>
  <text x="450" y="628" fill="#E2E8F0" font-size="22" font-family="Arial, sans-serif" font-weight="700">Live Gate Status · Device Heartbeat · Session Monitoring</text>
</svg>
